# xmcd
#
# Track frame offsets:
#	150
#	22597
#	44485
#	67525
#	88464
#	110792
#	130363
#	153599
#	175813
#	201254
#	224596
#
# Disc length: 3280 seconds
#
# Revision: 0
# Processed by: cddbd v1.5.2PL0 Copyright (c) Steve Scherf et al.
# Submitted via: EasyCDDAExtractor 16.0.9.1
#
DISCID=9d0cce0b
DTITLE=Quang Dũng - Tình Bỗng Chốc Là Không
DYEAR=2011
DGENRE=Ballad
TTITLE0=Yêu Là Chết Trong Lòng
TTITLE1=Hối Tiếc
TTITLE2=Nổi Buồn Còn Lại
TTITLE3=Chờ Người
TTITLE4=Giận Hờn
TTITLE5=Tình Bỗng Chốc Là Không
TTITLE6=Mùa Thu Trong Mưa
TTITLE7=Trăm Nhớ Ngàn Thương
TTITLE8=Đêm Buồn
TTITLE9=Tình Phụ
TTITLE10=Như Giấc Chiêm Bao
EXTD=
EXTT0=
EXTT1=
EXTT2=
EXTT3=
EXTT4=
EXTT5=
EXTT6=
EXTT7=
EXTT8=
EXTT9=
EXTT10=
PLAYORDER=
